<?xml version="1.0" encoding="UTF-8" standalone="no"?>
<svg width="20px" height="18px" viewBox="0 0 20 18" version="1.1" xmlns="http://www.w3.org/2000/svg" xmlns:xlink="http://www.w3.org/1999/xlink" xmlns:sketch="http://www.bohemiancoding.com/sketch/ns">
    <!-- Generator: sketchtool 3.4.4 (395) - http://www.bohemiancoding.com/sketch -->
    <title>X</title>
    <desc>Created with sketchtool.</desc>
    <defs></defs>
    <g id="Page-1" stroke="none" stroke-width="1" fill="none" fill-rule="evenodd" sketch:type="MSPage">
        <g id="Profile-Edit" sketch:type="MSArtboardGroup" transform="translate(-912.000000, -163.000000)" fill="#B0B0B0">
            <path d="M920.715533,171.764664 L912.392284,163 L914.114924,163 C914.274112,163 914.39066,163.025441 914.464569,163.076325 C914.538478,163.127209 914.603858,163.186572 914.660711,163.254417 L921.994721,171.141343 C922.028833,171.073498 922.065787,171.007774 922.105584,170.94417 C922.145381,170.880565 922.193705,170.814841 922.250558,170.746996 L929.328731,163.267138 C929.396955,163.199293 929.470862,163.137809 929.550457,163.082686 C929.630051,163.027562 929.7267,163 929.840406,163 L931.511878,163 L923.171574,171.70106 L931.852995,181 L930.130355,181 C929.971167,181 929.846092,180.963958 929.755127,180.891873 C929.664162,180.819788 929.590254,180.749824 929.533401,180.681979 L921.926497,172.387986 C921.881015,172.515195 921.801422,172.638162 921.687716,172.75689 L914.217259,180.681979 C914.137665,180.758304 914.046701,180.830388 913.944365,180.898233 C913.84203,180.966078 913.72264,181 913.586193,181 L912,181 L920.715533,171.764664 Z" id="X" sketch:type="MSShapeGroup"></path>
        </g>
    </g>
</svg>